{
 "cells": [
  {
   "cell_type": "code",
   "execution_count": 24,
   "id": "8b8e8a70-48b6-4be6-89d6-b2e4f22e57c0",
   "metadata": {},
   "outputs": [],
   "source": [
    "import subprocess\n",
    "import random\n",
    "import os\n",
    "\n",
    "def concatenate_videos(video_files, output_file, overlay_videos, short_overlay_videos, effects_next, fade_duration=0.2):\n",
    "    print('Создание видео со склейкой и эффектом появления (fade in)')\n",
    "    \n",
    "    filter_complex_parts = []\n",
    "    input_files = []\n",
    "    \n",
    "    for i, video in enumerate(video_files):\n",
    "        input_files.extend([\"-i\", video])\n",
    "        filter_complex_parts.append(\n",
    "            f\"[{i}:v]fade=t=in:st=0:d={fade_duration}[v{i}]\"\n",
    "        )\n",
    "    \n",
    "    video_streams = \"\".join(f\"[v{i}]\" for i in range(len(video_files)))\n",
    "    filter_complex = \";\".join(filter_complex_parts) + f\";{video_streams}concat=n={len(video_files)}:v=1:a=0[outv]\"\n",
    "    \n",
    "    command = [\n",
    "        \"ffmpeg\",\n",
    "        *input_files,\n",
    "        \"-filter_complex\", filter_complex,\n",
    "        \"-map\", \"[outv]\",  # исправлено\n",
    "        \"-c:v\", \"libx264\",\n",
    "        \"-preset\", \"fast\",\n",
    "        \"-y\", output_file\n",
    "    ]\n",
    "    \n",
    "    print(' '.join(command))\n",
    "    \n",
    "    try:\n",
    "        subprocess.run(command, shell=False, check=True)\n",
    "        print(\"Видео успешно склеены с эффектом fade in!\")\n",
    "    except subprocess.CalledProcessError as e:\n",
    "        print(\"Ошибка при обработке видео:\", e)\n",
    "        \n",
    "    durations = []\n",
    "    dd = 0\n",
    "    for i in range(len(video_files) - 1):\n",
    "        video_duration = get_video_duration(video_files[i])\n",
    "        if effects_next[i]: \n",
    "            durations.append([effects_next[i], dd + float(video_duration)])    \n",
    "            dd = 0\n",
    "            \n",
    "        else: \n",
    "            dd += float(video_duration)\n",
    "            \n",
    "    if len(durations):\n",
    "        apply_chromakey_with_overlays(output_file, overlay_videos, short_overlay_videos, durations,)\n",
    "\n",
    "\n",
    "def get_video_duration(video_file):\n",
    "    result = subprocess.run([\"ffprobe\", \"-v\", \"error\", \"-show_entries\", \"format=duration\", \"-of\", \"default=noprint_wrappers=1:nokey=1\", video_file], stdout=subprocess.PIPE, stderr=subprocess.PIPE)\n",
    "    return float(result.stdout)\n",
    "\n",
    "\n",
    "\n",
    "\n",
    "def apply_chromakey_with_overlays(base_video, overlay_videos, short_overlay_videos, durations):\n",
    "    # Выходное видео сохраняется с тем же именем\n",
    "    temp_file = \"videos/temp.mp4\"\n",
    "\n",
    "    filter_complex = []\n",
    "    inputs = [f'-i {base_video}']\n",
    "    for i, dur in enumerate(durations):\n",
    "        if dur[0] == 1:\n",
    "            inputs.append(f'-i {len(overlay_videos % i)}')\n",
    "        elif dur[0] == 2: \n",
    "            inputs.append(f'-i {random.choice(short_overlay_videos)}')\n",
    "\n",
    "    \n",
    "    overlay_streams = []\n",
    "\n",
    "    duration = 0 \n",
    "    for i, dur in enumerate(durations):\n",
    "        if dur[0] == 1:\n",
    "            tr = f'tr{i}'\n",
    "            over = f'over{i}'\n",
    "            delay = duration + durations[i][1] - 2.5  \n",
    "            duration += durations[i][1]\n",
    "            filter_complex.append(\n",
    "                f'[{i+1}:v]chromakey=0x00FF00:0.37:0.01,setpts=PTS+{delay}/TB[{tr}]'\n",
    "            )\n",
    "            overlay_streams.append(tr)\n",
    "        elif dur[0] == 2:\n",
    "            tr = f'tr{i}'\n",
    "            over = f'over{i}'\n",
    "            delay = duration + durations[i][1] - 0.6\n",
    "            duration += durations[i][1]\n",
    "            filter_complex.append(\n",
    "                f'[{i+1}:v]chromakey=0x00FF00:0.15:0.25,setpts=PTS+{delay}/TB[{tr}]'\n",
    "            )\n",
    "            overlay_streams.append(tr)   \n",
    "            \n",
    "    base = '[0:v]'\n",
    "    for i, over in enumerate(overlay_streams):\n",
    "        output = f'base{i+1}' if i < len(overlay_streams) - 1 else 'v'\n",
    "        filter_complex.append(f'{base}[{over}]overlay[{output}]')\n",
    "        base = f'[{output}]'\n",
    "    \n",
    "    filter_complex_str = '; '.join(filter_complex)\n",
    "    \n",
    "    command = [\n",
    "        'ffmpeg',\n",
    "        *inputs,\n",
    "        '-filter_complex', f'\"{filter_complex_str}\"',\n",
    "        '-map', '[v]',\n",
    "        '-c:v', 'libx264',\n",
    "        '-c:a', 'aac',\n",
    "        '-preset', 'fast',\n",
    "        '-y', temp_file  # Перезаписываем исходный файл\n",
    "    ]\n",
    "\n",
    "    print(' '.join(command))\n",
    "    \n",
    "    subprocess.run(' '.join(command), shell=True)\n",
    "\n",
    "    os.replace(temp_file, base_video)\n",
    "\n",
    "    return base_video  # Возвращаем путь к перезаписанному файлу\n",
    "\n",
    "\n"
   ]
  },
  {
   "cell_type": "code",
   "execution_count": 25,
   "id": "146836c7-aa6e-4bc9-be26-54afd4032114",
   "metadata": {
    "scrolled": true
   },
   "outputs": [
    {
     "name": "stdout",
     "output_type": "stream",
     "text": [
      "Создание видео со склейкой и эффектом появления (fade in)\n",
      "ffmpeg -i videos/generate_image_174700028.mp4 -i videos/generate_image_1086252390.mp4 -i videos/generate_image_1363419382.mp4 -filter_complex [0:v]fade=t=in:st=0:d=0.2[v0];[1:v]fade=t=in:st=0:d=0.2[v1];[2:v]fade=t=in:st=0:d=0.2[v2];[v0][v1][v2]concat=n=3:v=1:a=0[outv] -map [outv] -c:v libx264 -preset fast -y output.mp4\n"
     ]
    },
    {
     "name": "stderr",
     "output_type": "stream",
     "text": [
      "ffmpeg version 4.4.2-0ubuntu0.22.04.1 Copyright (c) 2000-2021 the FFmpeg developers\n",
      "  built with gcc 11 (Ubuntu 11.2.0-19ubuntu1)\n",
      "  configuration: --prefix=/usr --extra-version=0ubuntu0.22.04.1 --toolchain=hardened --libdir=/usr/lib/x86_64-linux-gnu --incdir=/usr/include/x86_64-linux-gnu --arch=amd64 --enable-gpl --disable-stripping --enable-gnutls --enable-ladspa --enable-libaom --enable-libass --enable-libbluray --enable-libbs2b --enable-libcaca --enable-libcdio --enable-libcodec2 --enable-libdav1d --enable-libflite --enable-libfontconfig --enable-libfreetype --enable-libfribidi --enable-libgme --enable-libgsm --enable-libjack --enable-libmp3lame --enable-libmysofa --enable-libopenjpeg --enable-libopenmpt --enable-libopus --enable-libpulse --enable-librabbitmq --enable-librubberband --enable-libshine --enable-libsnappy --enable-libsoxr --enable-libspeex --enable-libsrt --enable-libssh --enable-libtheora --enable-libtwolame --enable-libvidstab --enable-libvorbis --enable-libvpx --enable-libwebp --enable-libx265 --enable-libxml2 --enable-libxvid --enable-libzimg --enable-libzmq --enable-libzvbi --enable-lv2 --enable-omx --enable-openal --enable-opencl --enable-opengl --enable-sdl2 --enable-pocketsphinx --enable-librsvg --enable-libmfx --enable-libdc1394 --enable-libdrm --enable-libiec61883 --enable-chromaprint --enable-frei0r --enable-libx264 --enable-shared\n",
      "  libavutil      56. 70.100 / 56. 70.100\n",
      "  libavcodec     58.134.100 / 58.134.100\n",
      "  libavformat    58. 76.100 / 58. 76.100\n",
      "  libavdevice    58. 13.100 / 58. 13.100\n",
      "  libavfilter     7.110.100 /  7.110.100\n",
      "  libswscale      5.  9.100 /  5.  9.100\n",
      "  libswresample   3.  9.100 /  3.  9.100\n",
      "  libpostproc    55.  9.100 / 55.  9.100\n",
      "Input #0, mov,mp4,m4a,3gp,3g2,mj2, from 'videos/generate_image_174700028.mp4':\n",
      "  Metadata:\n",
      "    major_brand     : isom\n",
      "    minor_version   : 512\n",
      "    compatible_brands: isomiso2avc1mp41\n",
      "    encoder         : Lavf58.76.100\n",
      "  Duration: 00:00:05.17, start: 0.000000, bitrate: 540 kb/s\n",
      "  Stream #0:0(und): Video: h264 (High) (avc1 / 0x31637661), yuv420p, 1280x720, 536 kb/s, 30 fps, 30 tbr, 15360 tbn, 60 tbc (default)\n",
      "    Metadata:\n",
      "      handler_name    : VideoHandler\n",
      "      vendor_id       : [0][0][0][0]\n",
      "Input #1, mov,mp4,m4a,3gp,3g2,mj2, from 'videos/generate_image_1086252390.mp4':\n",
      "  Metadata:\n",
      "    major_brand     : isom\n",
      "    minor_version   : 512\n",
      "    compatible_brands: isomiso2avc1mp41\n",
      "    encoder         : Lavf58.76.100\n",
      "  Duration: 00:00:20.60, start: 0.000000, bitrate: 342 kb/s\n",
      "  Stream #1:0(und): Video: h264 (High) (avc1 / 0x31637661), yuv420p, 1280x720, 340 kb/s, 30 fps, 30 tbr, 15360 tbn, 60 tbc (default)\n",
      "    Metadata:\n",
      "      handler_name    : VideoHandler\n",
      "      vendor_id       : [0][0][0][0]\n",
      "Input #2, mov,mp4,m4a,3gp,3g2,mj2, from 'videos/generate_image_1363419382.mp4':\n",
      "  Metadata:\n",
      "    major_brand     : isom\n",
      "    minor_version   : 512\n",
      "    compatible_brands: isomiso2avc1mp41\n",
      "    encoder         : Lavf58.76.100\n",
      "  Duration: 00:00:10.43, start: 0.000000, bitrate: 654 kb/s\n",
      "  Stream #2:0(und): Video: h264 (High) (avc1 / 0x31637661), yuv420p, 1280x720, 651 kb/s, 30 fps, 30 tbr, 15360 tbn, 60 tbc (default)\n",
      "    Metadata:\n",
      "      handler_name    : VideoHandler\n",
      "      vendor_id       : [0][0][0][0]\n",
      "Stream mapping:\n",
      "  Stream #0:0 (h264) -> fade\n",
      "  Stream #1:0 (h264) -> fade\n",
      "  Stream #2:0 (h264) -> fade\n",
      "  concat -> Stream #0:0 (libx264)\n",
      "Press [q] to stop, [?] for help\n",
      "[libx264 @ 0x5639141d32c0] using cpu capabilities: MMX2 SSE2Fast SSSE3 SSE4.2 AVX FMA3 BMI2 AVX2\n",
      "[libx264 @ 0x5639141d32c0] profile High, level 3.1, 4:2:0, 8-bit\n",
      "[libx264 @ 0x5639141d32c0] 264 - core 163 r3060 5db6aa6 - H.264/MPEG-4 AVC codec - Copyleft 2003-2021 - http://www.videolan.org/x264.html - options: cabac=1 ref=2 deblock=1:0:0 analyse=0x3:0x113 me=hex subme=6 psy=1 psy_rd=1.00:0.00 mixed_ref=1 me_range=16 chroma_me=1 trellis=1 8x8dct=1 cqm=0 deadzone=21,11 fast_pskip=1 chroma_qp_offset=-2 threads=22 lookahead_threads=3 sliced_threads=0 nr=0 decimate=1 interlaced=0 bluray_compat=0 constrained_intra=0 bframes=3 b_pyramid=2 b_adapt=1 b_bias=0 direct=1 weightb=1 open_gop=0 weightp=1 keyint=250 keyint_min=25 scenecut=40 intra_refresh=0 rc_lookahead=30 rc=crf mbtree=1 crf=23.0 qcomp=0.60 qpmin=0 qpmax=69 qpstep=4 ip_ratio=1.40 aq=1:1.00\n",
      "Output #0, mp4, to 'output.mp4':\n",
      "  Metadata:\n",
      "    major_brand     : isom\n",
      "    minor_version   : 512\n",
      "    compatible_brands: isomiso2avc1mp41\n",
      "    encoder         : Lavf58.76.100\n",
      "  Stream #0:0: Video: h264 (avc1 / 0x31637661), yuv420p(progressive), 1280x720, q=2-31, 30 fps, 15360 tbn (default)\n",
      "    Metadata:\n",
      "      encoder         : Lavc58.134.100 libx264\n",
      "    Side data:\n",
      "      cpb: bitrate max/min/avg: 0/0/0 buffer size: 0 vbv_delay: N/A\n",
      "frame= 1086 fps=189 q=-1.0 Lsize=    1576kB time=00:00:36.10 bitrate= 357.7kbits/s speed=6.28x    \n",
      "video:1563kB audio:0kB subtitle:0kB other streams:0kB global headers:0kB muxing overhead: 0.865042%\n",
      "[libx264 @ 0x5639141d32c0] frame I:7     Avg QP:14.70  size: 34189\n",
      "[libx264 @ 0x5639141d32c0] frame P:281   Avg QP:18.33  size:  3762\n",
      "[libx264 @ 0x5639141d32c0] frame B:798   Avg QP:22.69  size:   380\n",
      "[libx264 @ 0x5639141d32c0] consecutive B-frames:  1.6%  1.1%  0.8% 96.5%\n",
      "[libx264 @ 0x5639141d32c0] mb I  I16..4: 25.0% 63.3% 11.7%\n",
      "[libx264 @ 0x5639141d32c0] mb P  I16..4:  0.5%  1.4%  0.1%  P16..4: 24.5%  4.9%  2.3%  0.0%  0.0%    skip:66.3%\n",
      "[libx264 @ 0x5639141d32c0] mb B  I16..4:  0.2%  0.1%  0.0%  B16..8:  4.3%  0.1%  0.0%  direct: 1.3%  skip:94.0%  L0:43.5% L1:54.8% BI: 1.6%\n",
      "[libx264 @ 0x5639141d32c0] 8x8 transform intra:62.2% inter:89.1%\n",
      "[libx264 @ 0x5639141d32c0] coded y,uvDC,uvAC intra: 35.5% 58.8% 35.1% inter: 1.6% 4.6% 0.1%\n",
      "[libx264 @ 0x5639141d32c0] i16 v,h,dc,p: 50% 23%  8% 19%\n",
      "[libx264 @ 0x5639141d32c0] i8 v,h,dc,ddl,ddr,vr,hd,vl,hu: 33% 20% 20%  4%  4%  5%  5%  5%  4%\n",
      "[libx264 @ 0x5639141d32c0] i4 v,h,dc,ddl,ddr,vr,hd,vl,hu: 36% 23% 10%  5%  7%  6%  6%  5%  3%\n",
      "[libx264 @ 0x5639141d32c0] i8c dc,h,v,p: 52% 22% 19%  7%\n",
      "[libx264 @ 0x5639141d32c0] Weighted P-Frames: Y:3.2% UV:2.8%\n",
      "[libx264 @ 0x5639141d32c0] ref P L0: 70.0% 30.0%\n",
      "[libx264 @ 0x5639141d32c0] ref B L0: 75.9% 24.1%\n",
      "[libx264 @ 0x5639141d32c0] ref B L1: 92.6%  7.4%\n",
      "[libx264 @ 0x5639141d32c0] kb/s:353.52\n"
     ]
    },
    {
     "name": "stdout",
     "output_type": "stream",
     "text": [
      "Видео успешно склеены с эффектом fade in!\n",
      "ffmpeg -i output.mp4 -i videos/vecteezy_2-color-liquid-black-and-red-transition-green-screen_49115368.mp4 -i videos/vecteezy_2-color-liquid-black-and-red-transition-green-screen_49115368.mp4 -filter_complex \"[1:v]chromakey=0x00FF00:0.37:0.01,setpts=PTS+2.667/TB[tr0]; [2:v]chromakey=0x00FF00:0.37:0.01,setpts=PTS+23.267000000000003/TB[tr1]; [0:v][tr0]overlay[base1]; [base1][tr1]overlay[v]\" -map [v] -c:v libx264 -c:a aac -preset fast -y videos/temp.mp4\n"
     ]
    },
    {
     "name": "stderr",
     "output_type": "stream",
     "text": [
      "ffmpeg version 4.4.2-0ubuntu0.22.04.1 Copyright (c) 2000-2021 the FFmpeg developers\n",
      "  built with gcc 11 (Ubuntu 11.2.0-19ubuntu1)\n",
      "  configuration: --prefix=/usr --extra-version=0ubuntu0.22.04.1 --toolchain=hardened --libdir=/usr/lib/x86_64-linux-gnu --incdir=/usr/include/x86_64-linux-gnu --arch=amd64 --enable-gpl --disable-stripping --enable-gnutls --enable-ladspa --enable-libaom --enable-libass --enable-libbluray --enable-libbs2b --enable-libcaca --enable-libcdio --enable-libcodec2 --enable-libdav1d --enable-libflite --enable-libfontconfig --enable-libfreetype --enable-libfribidi --enable-libgme --enable-libgsm --enable-libjack --enable-libmp3lame --enable-libmysofa --enable-libopenjpeg --enable-libopenmpt --enable-libopus --enable-libpulse --enable-librabbitmq --enable-librubberband --enable-libshine --enable-libsnappy --enable-libsoxr --enable-libspeex --enable-libsrt --enable-libssh --enable-libtheora --enable-libtwolame --enable-libvidstab --enable-libvorbis --enable-libvpx --enable-libwebp --enable-libx265 --enable-libxml2 --enable-libxvid --enable-libzimg --enable-libzmq --enable-libzvbi --enable-lv2 --enable-omx --enable-openal --enable-opencl --enable-opengl --enable-sdl2 --enable-pocketsphinx --enable-librsvg --enable-libmfx --enable-libdc1394 --enable-libdrm --enable-libiec61883 --enable-chromaprint --enable-frei0r --enable-libx264 --enable-shared\n",
      "  libavutil      56. 70.100 / 56. 70.100\n",
      "  libavcodec     58.134.100 / 58.134.100\n",
      "  libavformat    58. 76.100 / 58. 76.100\n",
      "  libavdevice    58. 13.100 / 58. 13.100\n",
      "  libavfilter     7.110.100 /  7.110.100\n",
      "  libswscale      5.  9.100 /  5.  9.100\n",
      "  libswresample   3.  9.100 /  3.  9.100\n",
      "  libpostproc    55.  9.100 / 55.  9.100\n",
      "Input #0, mov,mp4,m4a,3gp,3g2,mj2, from 'output.mp4':\n",
      "  Metadata:\n",
      "    major_brand     : isom\n",
      "    minor_version   : 512\n",
      "    compatible_brands: isomiso2avc1mp41\n",
      "    encoder         : Lavf58.76.100\n",
      "  Duration: 00:00:36.20, start: 0.000000, bitrate: 356 kb/s\n",
      "  Stream #0:0(und): Video: h264 (High) (avc1 / 0x31637661), yuv420p, 1280x720, 353 kb/s, 30 fps, 30 tbr, 15360 tbn, 60 tbc (default)\n",
      "    Metadata:\n",
      "      handler_name    : VideoHandler\n",
      "      vendor_id       : [0][0][0][0]\n",
      "Input #1, mov,mp4,m4a,3gp,3g2,mj2, from 'videos/vecteezy_2-color-liquid-black-and-red-transition-green-screen_49115368.mp4':\n",
      "  Metadata:\n",
      "    major_brand     : isom\n",
      "    minor_version   : 512\n",
      "    compatible_brands: isomiso2avc1mp41\n",
      "    encoder         : Lavf59.27.100\n",
      "  Duration: 00:00:05.09, start: 0.000000, bitrate: 1122 kb/s\n",
      "  Stream #1:0(und): Video: h264 (High) (avc1 / 0x31637661), yuv420p(tv, bt709), 1280x720, 1113 kb/s, 30 fps, 30 tbr, 15360 tbn, 60 tbc (default)\n",
      "    Metadata:\n",
      "      handler_name    : VideoHandler\n",
      "      vendor_id       : [0][0][0][0]\n",
      "      encoder         : Lavc59.37.100 libx264\n",
      "  Stream #1:1(und): Audio: aac (LC) (mp4a / 0x6134706D), 44100 Hz, stereo, fltp, 2 kb/s (default)\n",
      "    Metadata:\n",
      "      handler_name    : SoundHandler\n",
      "      vendor_id       : [0][0][0][0]\n",
      "Input #2, mov,mp4,m4a,3gp,3g2,mj2, from 'videos/vecteezy_2-color-liquid-black-and-red-transition-green-screen_49115368.mp4':\n",
      "  Metadata:\n",
      "    major_brand     : isom\n",
      "    minor_version   : 512\n",
      "    compatible_brands: isomiso2avc1mp41\n",
      "    encoder         : Lavf59.27.100\n",
      "  Duration: 00:00:05.09, start: 0.000000, bitrate: 1122 kb/s\n",
      "  Stream #2:0(und): Video: h264 (High) (avc1 / 0x31637661), yuv420p(tv, bt709), 1280x720, 1113 kb/s, 30 fps, 30 tbr, 15360 tbn, 60 tbc (default)\n",
      "    Metadata:\n",
      "      handler_name    : VideoHandler\n",
      "      vendor_id       : [0][0][0][0]\n",
      "      encoder         : Lavc59.37.100 libx264\n",
      "  Stream #2:1(und): Audio: aac (LC) (mp4a / 0x6134706D), 44100 Hz, stereo, fltp, 2 kb/s (default)\n",
      "    Metadata:\n",
      "      handler_name    : SoundHandler\n",
      "      vendor_id       : [0][0][0][0]\n",
      "Stream mapping:\n",
      "  Stream #0:0 (h264) -> overlay:main\n",
      "  Stream #1:0 (h264) -> chromakey\n",
      "  Stream #2:0 (h264) -> chromakey\n",
      "  overlay -> Stream #0:0 (libx264)\n",
      "Press [q] to stop, [?] for help\n",
      "[libx264 @ 0x5636091c0ec0] using cpu capabilities: MMX2 SSE2Fast SSSE3 SSE4.2 AVX FMA3 BMI2 AVX2\n",
      "[libx264 @ 0x5636091c0ec0] profile High, level 3.1, 4:2:0, 8-bit\n",
      "[libx264 @ 0x5636091c0ec0] 264 - core 163 r3060 5db6aa6 - H.264/MPEG-4 AVC codec - Copyleft 2003-2021 - http://www.videolan.org/x264.html - options: cabac=1 ref=2 deblock=1:0:0 analyse=0x3:0x113 me=hex subme=6 psy=1 psy_rd=1.00:0.00 mixed_ref=1 me_range=16 chroma_me=1 trellis=1 8x8dct=1 cqm=0 deadzone=21,11 fast_pskip=1 chroma_qp_offset=-2 threads=22 lookahead_threads=3 sliced_threads=0 nr=0 decimate=1 interlaced=0 bluray_compat=0 constrained_intra=0 bframes=3 b_pyramid=2 b_adapt=1 b_bias=0 direct=1 weightb=1 open_gop=0 weightp=1 keyint=250 keyint_min=25 scenecut=40 intra_refresh=0 rc_lookahead=30 rc=crf mbtree=1 crf=23.0 qcomp=0.60 qpmin=0 qpmax=69 qpstep=4 ip_ratio=1.40 aq=1:1.00\n",
      "Output #0, mp4, to 'videos/temp.mp4':\n",
      "  Metadata:\n",
      "    major_brand     : isom\n",
      "    minor_version   : 512\n",
      "    compatible_brands: isomiso2avc1mp41\n",
      "    encoder         : Lavf58.76.100\n",
      "  Stream #0:0: Video: h264 (avc1 / 0x31637661), yuv420p(progressive), 1280x720, q=2-31, 30 fps, 15360 tbn (default)\n",
      "    Metadata:\n",
      "      encoder         : Lavc58.134.100 libx264\n",
      "    Side data:\n",
      "      cpb: bitrate max/min/avg: 0/0/0 buffer size: 0 vbv_delay: N/A\n",
      "frame= 1086 fps=105 q=-1.0 Lsize=    3361kB time=00:00:36.10 bitrate= 762.6kbits/s speed=3.51x    \n",
      "video:3347kB audio:0kB subtitle:0kB other streams:0kB global headers:0kB muxing overhead: 0.404511%\n",
      "[libx264 @ 0x5636091c0ec0] frame I:9     Avg QP:15.36  size: 31113\n",
      "[libx264 @ 0x5636091c0ec0] frame P:291   Avg QP:18.79  size:  6270\n",
      "[libx264 @ 0x5636091c0ec0] frame B:786   Avg QP:23.12  size:  1682\n",
      "[libx264 @ 0x5636091c0ec0] consecutive B-frames:  1.5%  5.2%  2.8% 90.6%\n",
      "[libx264 @ 0x5636091c0ec0] mb I  I16..4: 36.5% 50.7% 12.8%\n",
      "[libx264 @ 0x5636091c0ec0] mb P  I16..4:  1.5%  3.6%  1.5%  P16..4: 24.4%  4.9%  2.2%  0.0%  0.0%    skip:61.9%\n",
      "[libx264 @ 0x5636091c0ec0] mb B  I16..4:  0.5%  0.2%  0.4%  B16..8:  5.6%  0.8%  0.1%  direct: 2.2%  skip:90.2%  L0:47.5% L1:50.6% BI: 1.9%\n",
      "[libx264 @ 0x5636091c0ec0] 8x8 transform intra:44.4% inter:75.6%\n",
      "[libx264 @ 0x5636091c0ec0] coded y,uvDC,uvAC intra: 33.5% 58.1% 36.6% inter: 2.0% 6.2% 0.5%\n",
      "[libx264 @ 0x5636091c0ec0] i16 v,h,dc,p: 63% 22%  8%  8%\n",
      "[libx264 @ 0x5636091c0ec0] i8 v,h,dc,ddl,ddr,vr,hd,vl,hu: 36% 18% 26%  3%  3%  4%  3%  4%  3%\n",
      "[libx264 @ 0x5636091c0ec0] i4 v,h,dc,ddl,ddr,vr,hd,vl,hu: 31% 13% 25%  5%  6%  7%  4%  6%  3%\n",
      "[libx264 @ 0x5636091c0ec0] i8c dc,h,v,p: 54% 19% 23%  5%\n",
      "[libx264 @ 0x5636091c0ec0] Weighted P-Frames: Y:2.4% UV:2.4%\n",
      "[libx264 @ 0x5636091c0ec0] ref P L0: 68.9% 31.1%\n",
      "[libx264 @ 0x5636091c0ec0] ref B L0: 80.4% 19.6%\n",
      "[libx264 @ 0x5636091c0ec0] ref B L1: 93.4%  6.6%\n",
      "[libx264 @ 0x5636091c0ec0] kb/s:757.27\n"
     ]
    }
   ],
   "source": [
    "videos = [\n",
    "    'videos/generate_image_174700028.mp4',\n",
    "    'videos/generate_image_174700028.mp4',\n",
    "    'videos/generate_image_174700028.mp4',\n",
    "    'videos/generate_image_174700028.mp4',\n",
    "    'videos/generate_image_174700028.mp4',            \n",
    "    ]\n",
    "\n",
    "\n",
    "overlay_videos = [\n",
    "        'videos/vecteezy_2-color-liquid-black-and-red-transition-green-screen_49115368.mp4',\n",
    "        'videos/vecteezy_red-liquid-transition-green-screen_49115367.mp4',\n",
    "        'videos/vecteezy_transition-ink-gradient-color-green-screen-free_48868911.mp4',\n",
    "        'videos/vecteezy_transitions-love-green-screen_48868982.mp4',\n",
    "        \n",
    "    ]\n",
    "\n",
    "short_overlay_videos = [\n",
    "        'videos/1.mp4',\n",
    "        'videos/2.mp4',\n",
    "        'videos/3.mp4',\n",
    "        'videos/4.mp4',  \n",
    "        'videos/5.mp4',  \n",
    "        'videos/6.mp4',  \n",
    "        'videos/7.mp4',\n",
    "        'videos/8.mp4',  \n",
    "        'videos/9.mp4',  \n",
    "    \n",
    "    ]\n",
    "\n",
    "output_video_avi = 'output.mp4'\n",
    "\n",
    "effects_next =[ 1 for i in range(len(videos))]\n",
    "\n",
    "concatenate_videos(videos, output_video_avi, overlay_videos, short_overlay_videos, effects_next)"
   ]
  },
  {
   "cell_type": "code",
   "execution_count": 1,
   "id": "932d3e19-afdb-4335-b3c8-fa47a5791d21",
   "metadata": {},
   "outputs": [
    {
     "name": "stdout",
     "output_type": "stream",
     "text": [
      "pygame 2.6.1 (SDL 2.28.4, Python 3.11.10)\n",
      "Hello from the pygame community. https://www.pygame.org/contribute.html\n"
     ]
    },
    {
     "name": "stderr",
     "output_type": "stream",
     "text": [
      "error: XDG_RUNTIME_DIR not set in the environment.\n",
      "ALSA lib confmisc.c:855:(parse_card) cannot find card '0'\n",
      "ALSA lib conf.c:5178:(_snd_config_evaluate) function snd_func_card_inum returned error: No such file or directory\n",
      "ALSA lib confmisc.c:422:(snd_func_concat) error evaluating strings\n",
      "ALSA lib conf.c:5178:(_snd_config_evaluate) function snd_func_concat returned error: No such file or directory\n",
      "ALSA lib confmisc.c:1334:(snd_func_refer) error evaluating name\n",
      "ALSA lib conf.c:5178:(_snd_config_evaluate) function snd_func_refer returned error: No such file or directory\n",
      "ALSA lib conf.c:5701:(snd_config_expand) Evaluate error: No such file or directory\n",
      "ALSA lib pcm.c:2664:(snd_pcm_open_noupdate) Unknown PCM default\n",
      "ALSA lib confmisc.c:855:(parse_card) cannot find card '0'\n",
      "ALSA lib conf.c:5178:(_snd_config_evaluate) function snd_func_card_inum returned error: No such file or directory\n",
      "ALSA lib confmisc.c:422:(snd_func_concat) error evaluating strings\n",
      "ALSA lib conf.c:5178:(_snd_config_evaluate) function snd_func_concat returned error: No such file or directory\n",
      "ALSA lib confmisc.c:1334:(snd_func_refer) error evaluating name\n",
      "ALSA lib conf.c:5178:(_snd_config_evaluate) function snd_func_refer returned error: No such file or directory\n",
      "ALSA lib conf.c:5701:(snd_config_expand) Evaluate error: No such file or directory\n",
      "ALSA lib pcm.c:2664:(snd_pcm_open_noupdate) Unknown PCM default\n",
      "ffmpeg version 4.4.2-0ubuntu0.22.04.1 Copyright (c) 2000-2021 the FFmpeg developers\n",
      "  built with gcc 11 (Ubuntu 11.2.0-19ubuntu1)\n",
      "  configuration: --prefix=/usr --extra-version=0ubuntu0.22.04.1 --toolchain=hardened --libdir=/usr/lib/x86_64-linux-gnu --incdir=/usr/include/x86_64-linux-gnu --arch=amd64 --enable-gpl --disable-stripping --enable-gnutls --enable-ladspa --enable-libaom --enable-libass --enable-libbluray --enable-libbs2b --enable-libcaca --enable-libcdio --enable-libcodec2 --enable-libdav1d --enable-libflite --enable-libfontconfig --enable-libfreetype --enable-libfribidi --enable-libgme --enable-libgsm --enable-libjack --enable-libmp3lame --enable-libmysofa --enable-libopenjpeg --enable-libopenmpt --enable-libopus --enable-libpulse --enable-librabbitmq --enable-librubberband --enable-libshine --enable-libsnappy --enable-libsoxr --enable-libspeex --enable-libsrt --enable-libssh --enable-libtheora --enable-libtwolame --enable-libvidstab --enable-libvorbis --enable-libvpx --enable-libwebp --enable-libx265 --enable-libxml2 --enable-libxvid --enable-libzimg --enable-libzmq --enable-libzvbi --enable-lv2 --enable-omx --enable-openal --enable-opencl --enable-opengl --enable-sdl2 --enable-pocketsphinx --enable-librsvg --enable-libmfx --enable-libdc1394 --enable-libdrm --enable-libiec61883 --enable-chromaprint --enable-frei0r --enable-libx264 --enable-shared\n",
      "  libavutil      56. 70.100 / 56. 70.100\n",
      "  libavcodec     58.134.100 / 58.134.100\n",
      "  libavformat    58. 76.100 / 58. 76.100\n",
      "  libavdevice    58. 13.100 / 58. 13.100\n",
      "  libavfilter     7.110.100 /  7.110.100\n",
      "  libswscale      5.  9.100 /  5.  9.100\n",
      "  libswresample   3.  9.100 /  3.  9.100\n",
      "  libpostproc    55.  9.100 / 55.  9.100\n",
      "Input #0, mov,mp4,m4a,3gp,3g2,mj2, from 'video/temp_video.mp4':\n",
      "  Metadata:\n",
      "    major_brand     : isom\n",
      "    minor_version   : 512\n",
      "    compatible_brands: isomiso2avc1mp41\n",
      "    encoder         : Lavf58.76.100\n",
      "  Duration: 00:03:04.00, start: 0.000000, bitrate: 420 kb/s\n",
      "  Stream #0:0(und): Video: h264 (High) (avc1 / 0x31637661), yuv420p, 1280x720, 417 kb/s, 30 fps, 30 tbr, 15360 tbn, 60 tbc (default)\n",
      "    Metadata:\n",
      "      handler_name    : VideoHandler\n",
      "      vendor_id       : [0][0][0][0]\n",
      "[mp3 @ 0x55a991e24700] Estimating duration from bitrate, this may be inaccurate\n",
      "Input #1, mp3, from 'static/no_vocal.mp3':\n",
      "  Duration: 00:03:04.01, start: 0.000000, bitrate: 320 kb/s\n",
      "  Stream #1:0: Audio: mp3, 44100 Hz, stereo, fltp, 320 kb/s\n",
      "Stream mapping:\n",
      "  Stream #0:0 -> #0:0 (copy)\n",
      "  Stream #1:0 -> #0:1 (mp3 (mp3float) -> aac (native))\n",
      "Press [q] to stop, [?] for help\n",
      "Output #0, mp4, to 'otput.mp4':\n",
      "  Metadata:\n",
      "    major_brand     : isom\n",
      "    minor_version   : 512\n",
      "    compatible_brands: isomiso2avc1mp41\n",
      "    encoder         : Lavf58.76.100\n",
      "  Stream #0:0(und): Video: h264 (High) (avc1 / 0x31637661), yuv420p, 1280x720, q=2-31, 417 kb/s, 30 fps, 30 tbr, 15360 tbn, 15360 tbc (default)\n",
      "    Metadata:\n",
      "      handler_name    : VideoHandler\n",
      "      vendor_id       : [0][0][0][0]\n",
      "  Stream #0:1: Audio: aac (LC) (mp4a / 0x6134706D), 44100 Hz, stereo, fltp, 128 kb/s\n",
      "    Metadata:\n",
      "      encoder         : Lavc58.134.100 aac\n",
      "frame= 5520 fps=2450 q=-1.0 Lsize=   12474kB time=00:03:03.99 bitrate= 555.4kbits/s speed=81.6x    \n",
      "video:9382kB audio:2898kB subtitle:0kB other streams:0kB global headers:0kB muxing overhead: 1.588670%\n",
      "[aac @ 0x55a991e5e8c0] Qavg: 175.105\n"
     ]
    }
   ],
   "source": [
    "from tools import *\n",
    "\n",
    "add_audio_to_video('video/temp_video.mp4', 'static/no_vocal.mp3', 'otput.mp4')\n",
    "\n"
   ]
  },
  {
   "cell_type": "code",
   "execution_count": null,
   "id": "1963e0ce-7228-4e16-9d4c-0642b87a97f8",
   "metadata": {},
   "outputs": [],
   "source": []
  }
 ],
 "metadata": {
  "kernelspec": {
   "display_name": "Python 3 (ipykernel)",
   "language": "python",
   "name": "python3"
  },
  "language_info": {
   "codemirror_mode": {
    "name": "ipython",
    "version": 3
   },
   "file_extension": ".py",
   "mimetype": "text/x-python",
   "name": "python",
   "nbconvert_exporter": "python",
   "pygments_lexer": "ipython3",
   "version": "3.11.10"
  }
 },
 "nbformat": 4,
 "nbformat_minor": 5
}
